<svg width="45" height="45" viewBox="0 0 45 45" fill="none" xmlns="http://www.w3.org/2000/svg">
<rect x="0.499016" y="0.501163" width="43.9" height="42.8979" rx="8.5" transform="matrix(0.999997 0.00232874 -0.00196527 0.999998 0.08729 -0.00116112)" fill="#205D83" fill-opacity="0.95" stroke="black"/>
<path d="M19.6666 25.5L19.6666 22" stroke="white" stroke-width="1.2" stroke-linecap="round"/>
<path d="M24.3334 25.5L24.3334 22" stroke="white" stroke-width="1.2" stroke-linecap="round"/>
<path d="M11.5 16.1666H32.5C31.0955 16.1666 30.3933 16.1666 29.8889 16.5037C29.6705 16.6496 29.483 16.8371 29.3371 17.0555C29 17.5599 29 18.2622 29 19.6666V27.3333C29 29.2189 29 30.1617 28.4142 30.7475C27.8284 31.3333 26.8856 31.3333 25 31.3333H19C17.1144 31.3333 16.1716 31.3333 15.5858 30.7475C15 30.1617 15 29.2189 15 27.3333V19.6666C15 18.2622 15 17.5599 14.6629 17.0555C14.517 16.8371 14.3295 16.6496 14.1111 16.5037C13.6067 16.1666 12.9045 16.1666 11.5 16.1666Z" fill="#7E869E" fill-opacity="0.25" stroke="white" stroke-width="1.2" stroke-linecap="round"/>
<path d="M19.7462 11.9324C19.8792 11.8083 20.1721 11.6987 20.5796 11.6205C20.9871 11.5424 21.4864 11.5 22 11.5C22.5137 11.5 23.013 11.5424 23.4205 11.6205C23.828 11.6987 24.1209 11.8083 24.2539 11.9324" stroke="white" stroke-width="1.2" stroke-linecap="round"/>
</svg>
