<svg width="45" height="45" viewBox="0 0 45 45" fill="none" xmlns="http://www.w3.org/2000/svg">
<rect x="0.499016" y="0.501163" width="43.8956" height="43.8956" rx="8.5" transform="matrix(0.999997 0.00232874 -0.00196527 0.999998 0.0892431 -0.00116112)" fill="#205D83" fill-opacity="0.95" stroke="black"/>
<path fill-rule="evenodd" clip-rule="evenodd" d="M23.7223 16.7623L25.8596 14.6249L25.8596 14.6249C26.6397 13.8449 27.0297 13.4549 27.4782 13.3057C27.8881 13.1693 28.3312 13.1693 28.7411 13.3057C29.1896 13.4549 29.5796 13.8449 30.3596 14.6249C31.1397 15.405 31.5297 15.795 31.6789 16.2435C31.8153 16.6534 31.8153 17.0965 31.6789 17.5064C31.5297 17.9549 31.1397 18.3449 30.3596 19.1249L28.2475 21.2371C26.3695 20.1622 24.8112 18.6158 23.7223 16.7623ZM22.2679 18.2167L14.341 26.1436C13.916 26.5686 13.7034 26.7812 13.5637 27.0423C13.424 27.3033 13.365 27.5981 13.2471 28.1875L12.5067 31.8895C12.4402 32.2221 12.4069 32.3884 12.5015 32.483C12.5962 32.5776 12.7625 32.5444 13.0951 32.4779L16.7971 31.7375C17.3865 31.6196 17.6812 31.5606 17.9423 31.4209C18.2034 31.2812 18.416 31.0686 18.841 30.6436L26.7894 22.6952C24.9623 21.556 23.4184 20.0228 22.2679 18.2167Z" fill="white"/>
</svg>
