<svg width="100" height="100" viewBox="0 0 100 100" fill="none" xmlns="http://www.w3.org/2000/svg">
<rect x="37.5" y="25.5" width="44" height="44" rx="8.5" fill="#053C5E" stroke="white"/>
<path fill-rule="evenodd" clip-rule="evenodd" d="M60.9838 37.5416C61.0711 37.7109 61.0928 37.9278 61.1361 38.3614C61.2182 39.1823 61.2593 39.5927 61.4311 39.8179C61.649 40.1036 62.0034 40.2504 62.3595 40.2025C62.6402 40.1647 62.9594 39.9035 63.5979 39.3811C63.9352 39.1051 64.1038 38.9672 64.2853 38.9092C64.5158 38.8355 64.7652 38.848 64.9872 38.9442C65.162 39.0199 65.3161 39.174 65.6243 39.4822L66.5178 40.3757C66.8259 40.6839 66.98 40.8379 67.0558 41.0128C67.152 41.2348 67.1644 41.4841 67.0908 41.7146C67.0328 41.8961 66.8948 42.0648 66.6188 42.4021C66.0964 43.0406 65.8352 43.3598 65.7975 43.6406C65.7496 43.9966 65.8964 44.351 66.182 44.5689C66.4072 44.7407 66.8176 44.7818 67.6385 44.8639C68.0722 44.9072 68.2891 44.9289 68.4584 45.0162C68.6734 45.1272 68.841 45.3123 68.9299 45.5373C69 45.7145 69 45.9324 69 46.3682V47.6319C69 48.0676 69 48.2855 68.93 48.4626C68.841 48.6877 68.6734 48.8729 68.4583 48.9838C68.289 49.0711 68.0722 49.0928 67.6386 49.1361L67.6386 49.1361C66.818 49.2182 66.4077 49.2592 66.1825 49.4309C65.8967 49.6489 65.7499 50.0034 65.7979 50.3596C65.8357 50.6402 66.0968 50.9593 66.619 51.5976C66.8949 51.9348 67.0328 52.1034 67.0908 52.2848C67.1645 52.5154 67.152 52.7648 67.0558 52.9869C66.98 53.1617 66.826 53.3157 66.5179 53.6238L65.6243 54.5174C65.3162 54.8255 65.1621 54.9796 64.9873 55.0554C64.7652 55.1516 64.5159 55.164 64.2854 55.0904C64.1039 55.0324 63.9352 54.8944 63.5979 54.6184L63.5979 54.6184C62.9594 54.096 62.6402 53.8348 62.3595 53.7971C62.0034 53.7492 61.649 53.896 61.4311 54.1816C61.2593 54.4068 61.2183 54.8173 61.1362 55.6383C61.0928 56.0722 61.0711 56.2891 60.9837 56.4585C60.8728 56.6735 60.6877 56.8409 60.4628 56.9299C60.2856 57 60.0676 57 59.6316 57H58.3682C57.9324 57 57.7145 57 57.5373 56.9299C57.3123 56.841 57.1272 56.6734 57.0162 56.4584C56.9289 56.2891 56.9072 56.0722 56.8639 55.6385C56.7818 54.8176 56.7407 54.4072 56.5689 54.182C56.351 53.8964 55.9966 53.7496 55.6406 53.7975C55.3599 53.8352 55.0406 54.0964 54.4021 54.6189L54.4021 54.6189C54.0647 54.8949 53.8961 55.0329 53.7146 55.0908C53.4841 55.1645 53.2347 55.152 53.0127 55.0558C52.8379 54.9801 52.6838 54.826 52.3756 54.5178L51.4822 53.6243C51.174 53.3162 51.0199 53.1621 50.9441 52.9873C50.8479 52.7652 50.8355 52.5159 50.9091 52.2854C50.9671 52.1039 51.1051 51.9352 51.3811 51.5979C51.9035 50.9594 52.1647 50.6402 52.2025 50.3594C52.2504 50.0034 52.1036 49.649 51.8179 49.4311C51.5927 49.2593 51.1823 49.2182 50.3614 49.1361C49.9278 49.0928 49.7109 49.0711 49.5416 48.9838C49.3266 48.8728 49.159 48.6877 49.07 48.4627C49 48.2855 49 48.0676 49 47.6318V46.3683C49 45.9324 49 45.7144 49.0701 45.5372C49.159 45.3123 49.3265 45.1272 49.5415 45.0163C49.7109 44.9289 49.9278 44.9072 50.3616 44.8638H50.3616H50.3616C51.1826 44.7817 51.5932 44.7407 51.8184 44.5688C52.104 44.3509 52.2507 43.9966 52.2029 43.6407C52.1651 43.3599 51.9039 43.0405 51.3813 42.4018C51.1052 42.0643 50.9671 41.8956 50.9091 41.7141C50.8356 41.4836 50.848 41.2344 50.9441 41.0124C51.0199 40.8375 51.174 40.6834 51.4823 40.3751L52.3757 39.4818L52.3757 39.4818C52.6839 39.1736 52.8379 39.0195 53.0128 38.9437C53.2348 38.8475 53.4841 38.8351 53.7146 38.9087C53.8961 38.9667 54.0648 39.1047 54.4022 39.3808C55.0406 39.9031 55.3598 40.1643 55.6404 40.2021C55.9966 40.25 56.3511 40.1032 56.5691 39.8174C56.7408 39.5923 56.7818 39.1819 56.8639 38.3613C56.9072 37.9278 56.9289 37.711 57.0162 37.5417C57.1271 37.3266 57.3123 37.159 57.5374 37.07C57.7145 37 57.9324 37 58.3681 37H59.6318C60.0676 37 60.2855 37 60.4627 37.07C60.6877 37.159 60.8728 37.3266 60.9838 37.5416ZM59 51C61.2091 51 63 49.2091 63 47C63 44.7909 61.2091 43 59 43C56.7909 43 55 44.7909 55 47C55 49.2091 56.7909 51 59 51Z" fill="white"/>
</svg>
