<svg width="45" height="45" viewBox="0 0 45 45" fill="none" xmlns="http://www.w3.org/2000/svg">
<rect width="45" height="45" rx="9" fill="#053C5E"/>
<path fill-rule="evenodd" clip-rule="evenodd" d="M23.9838 12.5416C24.0711 12.7109 24.0928 12.9278 24.1361 13.3614C24.2182 14.1823 24.2593 14.5927 24.4311 14.8179C24.649 15.1036 25.0034 15.2504 25.3595 15.2025C25.6402 15.1647 25.9594 14.9035 26.5979 14.3811C26.9352 14.1051 27.1038 13.9672 27.2853 13.9092C27.5158 13.8355 27.7652 13.848 27.9872 13.9442C28.162 14.0199 28.3161 14.174 28.6243 14.4822L29.5178 15.3757C29.8259 15.6839 29.98 15.8379 30.0558 16.0128C30.152 16.2348 30.1644 16.4841 30.0908 16.7146C30.0328 16.8961 29.8948 17.0648 29.6188 17.4021C29.0964 18.0406 28.8352 18.3598 28.7975 18.6406C28.7496 18.9966 28.8964 19.351 29.182 19.5689C29.4072 19.7407 29.8176 19.7818 30.6385 19.8639C31.0722 19.9072 31.2891 19.9289 31.4584 20.0162C31.6734 20.1272 31.841 20.3123 31.9299 20.5373C32 20.7145 32 20.9324 32 21.3682V22.6319C32 23.0676 32 23.2855 31.93 23.4626C31.841 23.6877 31.6734 23.8729 31.4583 23.9838C31.289 24.0711 31.0722 24.0928 30.6386 24.1361L30.6386 24.1361C29.818 24.2182 29.4077 24.2592 29.1825 24.4309C28.8967 24.6489 28.7499 25.0034 28.7979 25.3596C28.8357 25.6402 29.0968 25.9593 29.619 26.5976C29.8949 26.9348 30.0328 27.1034 30.0908 27.2848C30.1645 27.5154 30.152 27.7648 30.0558 27.9869C29.98 28.1617 29.826 28.3157 29.5179 28.6238L28.6243 29.5174C28.3162 29.8255 28.1621 29.9796 27.9873 30.0554C27.7652 30.1516 27.5159 30.164 27.2854 30.0904C27.1039 30.0324 26.9352 29.8944 26.5979 29.6184L26.5979 29.6184C25.9594 29.096 25.6402 28.8348 25.3595 28.7971C25.0034 28.7492 24.649 28.896 24.4311 29.1816C24.2593 29.4068 24.2183 29.8173 24.1362 30.6383C24.0928 31.0722 24.0711 31.2891 23.9837 31.4585C23.8728 31.6735 23.6877 31.8409 23.4628 31.9299C23.2856 32 23.0676 32 22.6316 32H21.3682C20.9324 32 20.7145 32 20.5373 31.9299C20.3123 31.841 20.1272 31.6734 20.0162 31.4584C19.9289 31.2891 19.9072 31.0722 19.8639 30.6385C19.7818 29.8176 19.7407 29.4072 19.5689 29.182C19.351 28.8964 18.9966 28.7496 18.6406 28.7975C18.3599 28.8352 18.0406 29.0964 17.4021 29.6189L17.4021 29.6189C17.0647 29.8949 16.8961 30.0329 16.7146 30.0908C16.4841 30.1645 16.2347 30.152 16.0127 30.0558C15.8379 29.9801 15.6838 29.826 15.3756 29.5178L14.4822 28.6243C14.174 28.3162 14.0199 28.1621 13.9441 27.9873C13.8479 27.7652 13.8355 27.5159 13.9091 27.2854C13.9671 27.1039 14.1051 26.9352 14.3811 26.5979C14.9035 25.9594 15.1647 25.6402 15.2025 25.3594C15.2504 25.0034 15.1036 24.649 14.8179 24.4311C14.5927 24.2593 14.1823 24.2182 13.3614 24.1361C12.9278 24.0928 12.7109 24.0711 12.5416 23.9838C12.3266 23.8728 12.159 23.6877 12.07 23.4627C12 23.2855 12 23.0676 12 22.6318V21.3683C12 20.9324 12 20.7144 12.0701 20.5372C12.159 20.3123 12.3265 20.1272 12.5415 20.0163C12.7109 19.9289 12.9278 19.9072 13.3616 19.8638H13.3616H13.3616C14.1826 19.7817 14.5932 19.7407 14.8184 19.5688C15.104 19.3509 15.2507 18.9966 15.2029 18.6407C15.1651 18.3599 14.9039 18.0405 14.3813 17.4018C14.1052 17.0643 13.9671 16.8956 13.9091 16.7141C13.8356 16.4836 13.848 16.2344 13.9441 16.0124C14.0199 15.8375 14.174 15.6834 14.4823 15.3751L15.3757 14.4818L15.3757 14.4818C15.6839 14.1736 15.8379 14.0195 16.0128 13.9437C16.2348 13.8475 16.4841 13.8351 16.7146 13.9087C16.8961 13.9667 17.0648 14.1047 17.4022 14.3808C18.0406 14.9031 18.3598 15.1643 18.6404 15.2021C18.9966 15.25 19.3511 15.1032 19.5691 14.8174C19.7408 14.5923 19.7818 14.1819 19.8639 13.3613C19.9072 12.9278 19.9289 12.711 20.0162 12.5417C20.1271 12.3266 20.3123 12.159 20.5374 12.07C20.7145 12 20.9324 12 21.3681 12H22.6318C23.0676 12 23.2855 12 23.4627 12.07C23.6877 12.159 23.8728 12.3266 23.9838 12.5416ZM22 26C24.2091 26 26 24.2091 26 22C26 19.7909 24.2091 18 22 18C19.7909 18 18 19.7909 18 22C18 24.2091 19.7909 26 22 26Z" fill="white"/>
</svg>
