<svg width="38" height="38" viewBox="0 0 38 38" fill="none" xmlns="http://www.w3.org/2000/svg">
<path d="M6.33334 14.25C6.33334 9.77166 6.33334 7.53249 7.72458 6.14124C9.11582 4.75 11.355 4.75 15.8333 4.75H22.1667C26.645 4.75 28.8842 4.75 30.2754 6.14124C31.6667 7.53249 31.6667 9.77166 31.6667 14.25V25.0604C31.6667 29.3089 31.6667 31.4332 30.3299 32.0829C28.9931 32.7327 27.3227 31.4202 23.982 28.7954L22.9129 27.9553C21.0344 26.4794 20.0952 25.7415 19 25.7415C17.9048 25.7415 16.9656 26.4794 15.0871 27.9554L14.018 28.7954C10.6773 31.4202 9.00693 32.7327 7.67013 32.0829C6.33334 31.4332 6.33334 29.3089 6.33334 25.0604V14.25Z" fill="#7E869E" fill-opacity="0.25" stroke="white" stroke-width="1.4"/>
</svg>
