<svg width="55" height="55" viewBox="0 0 55 55" fill="none" xmlns="http://www.w3.org/2000/svg">
<path fill-rule="evenodd" clip-rule="evenodd" d="M43.1458 27C43.1458 26.1371 42.4462 25.4375 41.5833 25.4375H12.4166C11.5537 25.4375 10.8541 26.1371 10.8541 27C10.8541 27.863 11.5537 28.5625 12.4166 28.5625H41.5833C42.4462 28.5625 43.1458 27.863 43.1458 27Z" fill="black"/>
<path fill-rule="evenodd" clip-rule="evenodd" d="M43.1458 16.5834C43.1458 15.7204 42.4462 15.0209 41.5833 15.0209H12.4166C11.5537 15.0209 10.8541 15.7204 10.8541 16.5834C10.8541 17.4463 11.5537 18.1459 12.4166 18.1459H41.5833C42.4462 18.1459 43.1458 17.4463 43.1458 16.5834Z" fill="black"/>
<path fill-rule="evenodd" clip-rule="evenodd" d="M43.1458 37.4167C43.1458 36.5538 42.4462 35.8542 41.5833 35.8542H12.4166C11.5537 35.8542 10.8541 36.5538 10.8541 37.4167C10.8541 38.2797 11.5537 38.9792 12.4166 38.9792H41.5833C42.4462 38.9792 43.1458 38.2797 43.1458 37.4167Z" fill="black"/>
<rect x="0.5" y="0.5" width="54" height="54" rx="8.5" stroke="black"/>
</svg>
