<svg width="45" height="45" viewBox="0 0 45 45" fill="none" xmlns="http://www.w3.org/2000/svg">
<rect width="45" height="45" rx="9" fill="#053C5E"/>
<path d="M11.3389 18.625C11.3389 14.9716 11.3389 13.1449 12.5117 12.01C13.6845 10.875 15.572 10.875 19.3472 10.875H24.6861C28.4613 10.875 30.3488 10.875 31.5216 12.01C32.6944 13.1449 32.6944 14.9716 32.6944 18.625V27.444C32.6944 30.9099 32.6944 32.6429 31.5675 33.1729C30.4406 33.703 29.0325 32.6323 26.2164 30.491L25.3151 29.8057C23.7316 28.6017 22.9399 27.9996 22.0166 27.9996C21.0934 27.9996 20.3016 28.6017 18.7182 29.8057L17.8169 30.491C15.0007 32.6323 13.5927 33.703 12.4658 33.1729C11.3389 32.6429 11.3389 30.9099 11.3389 27.444V18.625Z" fill="#7E869E" fill-opacity="0.25" stroke="white" stroke-width="1.4"/>
</svg>
