<svg width="45" height="45" viewBox="0 0 45 45" fill="none" xmlns="http://www.w3.org/2000/svg">
<rect width="45" height="45" rx="9" fill="#053C5E"/>
<path d="M12.6666 23.0128C12.6666 21.2025 12.6666 20.2973 13.0326 19.5017C13.3985 18.706 14.0858 18.1169 15.4603 16.9388L16.7936 15.7959C19.2781 13.6664 20.5203 12.6017 22 12.6017C23.4797 12.6017 24.7219 13.6664 27.2063 15.7959L28.5396 16.9388C29.9141 18.1169 30.6014 18.706 30.9673 19.5017C31.3333 20.2973 31.3333 21.2025 31.3333 23.0128V28.6667C31.3333 31.1808 31.3333 32.4379 30.5522 33.219C29.7712 34 28.5141 34 26 34H18C15.4858 34 14.2287 34 13.4477 33.219C12.6666 32.4379 12.6666 31.1808 12.6666 28.6667V23.0128Z" stroke="white" stroke-width="2"/>
<path d="M25.3333 34V27C25.3333 26.4477 24.8856 26 24.3333 26H19.6666C19.1143 26 18.6666 26.4477 18.6666 27V34" stroke="white" stroke-width="2" stroke-linecap="round" stroke-linejoin="round"/>
</svg>
