<svg width="53" height="53" viewBox="0 0 53 53" fill="none" xmlns="http://www.w3.org/2000/svg">
<path d="M0 8C0 3.58172 3.58172 0 8 0H45C49.4183 0 53 3.58172 53 8V45C53 49.4183 49.4183 53 45 53H8C3.58172 53 0 49.4183 0 45V8Z" fill="#C4C4C4"/>
<path fill-rule="evenodd" clip-rule="evenodd" d="M42.1458 26C42.1458 25.1371 41.4462 24.4375 40.5833 24.4375H11.4166C10.5537 24.4375 9.85413 25.1371 9.85413 26C9.85413 26.863 10.5537 27.5625 11.4166 27.5625H40.5833C41.4462 27.5625 42.1458 26.863 42.1458 26Z" fill="black"/>
<path fill-rule="evenodd" clip-rule="evenodd" d="M42.1458 15.5834C42.1458 14.7204 41.4462 14.0209 40.5833 14.0209H11.4166C10.5537 14.0209 9.85413 14.7204 9.85413 15.5834C9.85413 16.4463 10.5537 17.1459 11.4166 17.1459H40.5833C41.4462 17.1459 42.1458 16.4463 42.1458 15.5834Z" fill="black"/>
<path fill-rule="evenodd" clip-rule="evenodd" d="M42.1458 36.4167C42.1458 35.5538 41.4462 34.8542 40.5833 34.8542H11.4166C10.5537 34.8542 9.85413 35.5538 9.85413 36.4167C9.85413 37.2797 10.5537 37.9792 11.4166 37.9792H40.5833C41.4462 37.9792 42.1458 37.2797 42.1458 36.4167Z" fill="black"/>
</svg>
